{
    "asset" : {
        "generator" : "Khronos glTF Blender I/O v1.6.16",
        "version" : "2.0"
    },
    "scene" : 0,
    "scenes" : [
        {
            "name" : "Scene",
            "nodes" : [
                0
            ]
        }
    ],
    "nodes" : [
        {
            "mesh" : 0,
            "name" : "Cube.001",
            "scale" : [
                0.15069743990898132,
                0.15069743990898132,
                0.15069743990898132
            ]
        }
    ],
    "meshes" : [
        {
            "name" : "Cube.005",
            "primitives" : [
                {
                    "attributes" : {
                        "POSITION" : 0,
                        "NORMAL" : 1,
                        "TEXCOORD_0" : 2
                    },
                    "indices" : 3
                }
            ]
        }
    ],
    "accessors" : [
        {
            "bufferView" : 0,
            "componentType" : 5126,
            "count" : 1636,
            "max" : [
                14.667168617248535,
                23.338092803955078,
                18.741043090820312
            ],
            "min" : [
                -14.667168617248535,
                -20.885038375854492,
                -21.909942626953125
            ],
            "type" : "VEC3"
        },
        {
            "bufferView" : 1,
            "componentType" : 5126,
            "count" : 1636,
            "type" : "VEC3"
        },
        {
            "bufferView" : 2,
            "componentType" : 5126,
            "count" : 1636,
            "type" : "VEC2"
        },
        {
            "bufferView" : 3,
            "componentType" : 5123,
            "count" : 2328,
            "type" : "SCALAR"
        }
    ],
    "bufferViews" : [
        {
            "buffer" : 0,
            "byteLength" : 19632,
            "byteOffset" : 0
        },
        {
            "buffer" : 0,
            "byteLength" : 19632,
            "byteOffset" : 19632
        },
        {
            "buffer" : 0,
            "byteLength" : 13088,
            "byteOffset" : 39264
        },
        {
            "buffer" : 0,
            "byteLength" : 4656,
            "byteOffset" : 52352
        }
    ],
    "buffers" : [
        {
            "byteLength" : 57008,
            "uri" : "data:application/octet-stream;base64,"
        }
    ]
}
